<svg width="97" height="36" viewBox="0 0 97 36" fill="none" xmlns="http://www.w3.org/2000/svg">
<g id="rsschool-logo 1" clip-path="url(#clip0_111_299)">
<path id="Vector" d="M50.0792 11.9239L54.6941 11.6258C54.7994 12.3798 54.9924 12.941 55.3083 13.3443C55.8171 13.9755 56.519 14.2912 57.449 14.2912C58.1333 14.2912 58.6773 14.1334 59.0458 13.8002C59.3967 13.5372 59.6073 13.1163 59.6073 12.6779C59.6073 12.2571 59.4143 11.8538 59.0809 11.5907C58.7299 11.2751 57.9052 10.9595 56.6067 10.6789C54.4835 10.2054 52.957 9.57418 52.062 8.76755C51.1672 8.01353 50.6583 6.90881 50.6934 5.73394C50.6934 4.92732 50.939 4.12069 51.3953 3.45435C51.9217 2.70033 52.6411 2.10413 53.5009 1.77096C54.4309 1.36765 55.7294 1.15723 57.3613 1.15723C59.3616 1.15723 60.8882 1.52547 61.941 2.27949C62.9939 3.01597 63.6255 4.20837 63.8186 5.83916L59.2563 6.10218C59.1335 5.40077 58.8878 4.89225 58.4843 4.55908C58.0807 4.22591 57.5543 4.06809 56.8699 4.06809C56.3084 4.06809 55.8873 4.19084 55.6065 4.4188C55.3433 4.62922 55.1679 4.94485 55.1854 5.29556C55.1854 5.55859 55.3258 5.80408 55.5364 5.9619C55.7645 6.17233 56.3084 6.36521 57.1682 6.54057C59.2914 6.99649 60.8005 7.4524 61.7305 7.92586C62.6605 8.39931 63.3272 8.97798 63.7308 9.66185C64.152 10.3633 64.3625 11.1699 64.345 11.9941C64.345 12.976 64.0642 13.958 63.5027 14.7822C62.9237 15.6414 62.1165 16.3077 61.169 16.7111C60.1688 17.1494 58.9054 17.3774 57.3963 17.3774C54.7292 17.3774 52.8868 16.8689 51.8515 15.8343C50.8162 14.7997 50.2021 13.5021 50.0792 11.9239ZM1.10546 17.1144V1.43779H9.19465C10.6861 1.43779 11.8442 1.56054 12.6339 1.82357C13.4059 2.06906 14.0903 2.57759 14.5465 3.26146C15.0554 4.01548 15.301 4.89225 15.2835 5.80408C15.3361 7.34719 14.5465 8.82016 13.1954 9.59171C12.669 9.88981 12.0899 10.1002 11.4933 10.2054C11.932 10.3282 12.3707 10.5386 12.7567 10.7841C13.055 11.0296 13.3007 11.3102 13.5288 11.6083C13.792 11.9064 14.0201 12.2395 14.2131 12.5903L16.5644 17.1319H11.0546L8.45767 12.3097C8.12428 11.6959 7.84352 11.2926 7.58032 11.0997C7.22938 10.8543 6.80825 10.7315 6.38712 10.7315H5.96599V17.0968H1.10546V17.1144ZM5.96599 7.78558H8.01899C8.45767 7.7505 8.8788 7.68036 9.29993 7.57515C9.61577 7.52255 9.89653 7.34719 10.0895 7.08416C10.5633 6.45289 10.4931 5.55859 9.91407 5.015C9.59823 4.75197 8.98408 4.61168 8.10673 4.61168H5.96599V7.78558ZM0 30.5464L4.61487 30.2483C4.72015 31.0023 4.91317 31.5635 5.22902 31.9668C5.72033 32.598 6.43976 32.9312 7.36975 32.9312C8.05409 32.9312 8.59805 32.7734 8.96653 32.4402C9.31747 32.1597 9.52804 31.7563 9.52804 31.318C9.52804 30.8971 9.33502 30.4938 9.00163 30.2308C8.65069 29.9151 7.82598 29.5995 6.50995 29.3189C4.38676 28.8455 2.86017 28.2142 1.96527 27.4076C1.07037 26.6536 0.561505 25.5488 0.596599 24.374C0.596599 23.5674 0.842258 22.7607 1.29848 22.0944C1.82489 21.3404 2.54432 20.7442 3.40412 20.411C4.33412 20.0077 5.6326 19.7973 7.26447 19.7973C9.26483 19.7973 10.7914 20.1655 11.8442 20.9195C12.8971 21.6735 13.5112 22.8484 13.7042 24.4792L9.142 24.7422C9.01918 24.0408 8.77352 23.5323 8.36994 23.1991C7.9839 22.8659 7.43994 22.7081 6.75561 22.7257C6.1941 22.7257 5.77297 22.8484 5.49222 23.0939C5.21147 23.3043 5.05355 23.62 5.07109 23.9707C5.07109 24.2337 5.21147 24.4792 5.42203 24.637C5.65014 24.8474 6.1941 25.0403 7.05391 25.2157C9.1771 25.6716 10.6861 26.1275 11.6161 26.601C12.5461 27.0744 13.2129 27.6531 13.6165 28.337C14.0376 29.0384 14.2482 29.845 14.2482 30.6516C14.2482 31.6336 13.9499 32.598 13.4059 33.4222C12.8269 34.2814 12.0197 34.9478 11.0722 35.3511C10.072 35.7895 8.80861 36.0174 7.29957 36.0174C4.63242 36.0174 2.78998 35.5089 1.7547 34.4743C0.719428 33.4222 0.140376 32.1246 0 30.5464Z" fill="white"/>
<path id="Vector_2" d="M23.3374 29.319L27.5838 30.5991C27.3557 31.6688 26.8819 32.6858 26.2327 33.5801C25.6361 34.3692 24.8465 34.9829 23.9516 35.3863C23.0391 35.7896 21.881 36 20.4772 36C18.7752 36 17.3714 35.7545 16.301 35.2635C15.2131 34.7725 14.2831 33.8958 13.4935 32.6507C12.7039 31.4057 12.3179 29.81 12.3179 27.8636C12.3179 25.2684 13.0022 23.2694 14.3884 21.8841C15.7746 20.4988 17.7224 19.7974 20.2491 19.7974C22.2319 19.7974 23.7761 20.2007 24.9166 20.9898C26.0397 21.7964 26.8819 23.0239 27.4434 24.6722L23.1619 25.6191C23.0567 25.2508 22.8987 24.8826 22.6882 24.567C22.425 24.1987 22.0916 23.9182 21.688 23.7077C21.2844 23.4973 20.8282 23.4096 20.372 23.4096C19.2665 23.4096 18.4242 23.848 17.8452 24.7423C17.4065 25.3911 17.1784 26.4257 17.1784 27.8285C17.1784 29.5645 17.4416 30.7569 17.968 31.4057C18.4944 32.0545 19.2314 32.3702 20.1965 32.3702C21.1265 32.3702 21.8284 32.1072 22.3021 31.5986C22.7759 31.055 23.1268 30.301 23.3374 29.319ZM33.2515 20.0604H38.0945V25.5489H43.3937V20.0604H48.2717V35.737H43.3937V29.3892H38.0945V35.737H33.2515V20.0604Z" fill="white"/>
<path id="Vector_3" d="M47.605 27.8986C47.605 25.3385 48.3244 23.3395 49.7457 21.9191C51.167 20.4987 53.1674 19.7798 55.7117 19.7798C58.3262 19.7798 60.3266 20.4812 61.7479 21.884C63.1692 23.2868 63.8711 25.2508 63.8711 27.7759C63.8711 29.6171 63.5552 31.1076 62.9411 32.2825C62.3445 33.4398 61.4145 34.3867 60.2739 35.018C59.0983 35.6668 57.6419 36 55.9047 36C54.1325 36 52.6761 35.7194 51.518 35.1583C50.3248 34.5621 49.3421 33.6327 48.6929 32.4929C47.9735 31.2654 47.605 29.7398 47.605 27.8986ZM52.448 27.9162C52.448 29.4943 52.7463 30.6341 53.3253 31.3356C53.9044 32.0194 54.7115 32.3701 55.7293 32.3701C56.7645 32.3701 57.5717 32.037 58.1507 31.3531C58.7298 30.6692 59.0106 29.4593 59.0106 27.7057C59.0106 26.2328 58.7123 25.1456 58.1157 24.4792C57.5191 23.7954 56.7119 23.4622 55.6942 23.4622C54.7993 23.4271 53.9395 23.8129 53.3429 24.4968C52.7463 25.1807 52.448 26.3205 52.448 27.9162ZM68.8369 27.8986C68.8369 25.3385 69.5563 23.3395 70.9776 21.9191C72.3989 20.4987 74.3993 19.7798 76.9436 19.7798C79.5581 19.7798 81.576 20.4812 82.9798 21.884C84.3836 23.2868 85.103 25.2508 85.103 27.7759C85.103 29.6171 84.7871 31.1076 84.173 32.2825C83.5764 33.4398 82.6464 34.3867 81.5059 35.018C80.3302 35.6668 78.8738 36 77.1366 36C75.3644 36 73.908 35.7194 72.7499 35.1583C71.5567 34.5621 70.574 33.6327 69.9248 32.4929C69.2054 31.2654 68.8369 29.7398 68.8369 27.8986ZM73.6799 27.9162C73.6799 29.4943 73.9782 30.6341 74.5572 31.3356C75.1363 32.0194 75.9434 32.3701 76.9612 32.3701C77.9964 32.3701 78.8036 32.037 79.3827 31.3531C79.9617 30.6692 80.2425 29.4593 80.2425 27.7057C80.2425 26.2328 79.9442 25.1456 79.3476 24.4792C78.751 23.7954 77.9438 23.4622 76.9261 23.4622C76.0312 23.4271 75.1538 23.8129 74.5748 24.4968C73.9782 25.1807 73.6799 26.3205 73.6799 27.9162Z" fill="white"/>
<path id="Vector_4" d="M84.5942 20.0603H89.4372V31.8791H97V35.7369H84.5767V20.0603H84.5942Z" fill="white"/>
<path id="Vector_5" d="M79.2563 19.1556C84.1321 15.4837 85.6357 9.25929 82.6146 5.25294C79.5934 1.24658 73.1917 0.975451 68.3158 4.64734C63.44 8.31924 61.9364 14.5437 64.9575 18.55C67.9787 22.5564 74.3804 22.8275 79.2563 19.1556Z" fill="#282828"/>
<g id="Clip path group">
<mask id="mask0_111_299" style="mask-type:luminance" maskUnits="userSpaceOnUse" x="63" y="2" width="22" height="20">
<g id="SVGID_2_">
<path id="Vector_6" d="M79.2563 19.1556C84.1321 15.4837 85.6357 9.25929 82.6146 5.25294C79.5934 1.24658 73.1917 0.975451 68.3158 4.64734C63.44 8.31924 61.9364 14.5437 64.9575 18.55C67.9787 22.5564 74.3804 22.8275 79.2563 19.1556Z" fill="white"/>
</g>
</mask>
<g mask="url(#mask0_111_299)">
<g id="Group">
<path id="Vector_7" d="M52.5229 9.91455L77.7192 -9.06021L95.1543 14.0606L69.958 33.0354L52.5229 9.91455Z" fill="#282828"/>
<g id="Layer_2_1_">
<g id="Clip path group_2">
<mask id="mask1_111_299" style="mask-type:luminance" maskUnits="userSpaceOnUse" x="52" y="-10" width="44" height="44">
<g id="SVGID_4_">
<path id="Vector_8" d="M52.5229 9.91455L77.7192 -9.06021L95.1543 14.0606L69.958 33.0354L52.5229 9.91455Z" fill="white"/>
</g>
</mask>
<g mask="url(#mask1_111_299)">
<g id="Layer_1-2">
<path id="Vector_9" d="M79.2563 19.1556C84.1321 15.4837 85.6357 9.25929 82.6146 5.25294C79.5934 1.24658 73.1917 0.975451 68.3158 4.64734C63.44 8.31924 61.9364 14.5437 64.9575 18.55C67.9787 22.5564 74.3804 22.8275 79.2563 19.1556Z" fill="#282828"/>
<g id="Clip path group_3">
<mask id="mask2_111_299" style="mask-type:luminance" maskUnits="userSpaceOnUse" x="63" y="2" width="22" height="20">
<g id="SVGID_6_">
<path id="Vector_10" d="M79.2563 19.1556C84.1321 15.4837 85.6357 9.25929 82.6146 5.25294C79.5934 1.24658 73.1917 0.975451 68.3158 4.64734C63.44 8.31924 61.9364 14.5437 64.9575 18.55C67.9787 22.5564 74.3804 22.8275 79.2563 19.1556Z" fill="white"/>
</g>
</mask>
<g mask="url(#mask2_111_299)">
<g id="Group_2">
<path id="Vector_11" d="M59.5391 11.4583L77.1823 -1.828L88.1331 12.6945L70.4899 25.9807L59.5391 11.4583Z" fill="#282828"/>
<g id="Clip path group_4">
<mask id="mask3_111_299" style="mask-type:luminance" maskUnits="userSpaceOnUse" x="59" y="-2" width="30" height="28">
<g id="SVGID_8_">
<path id="Vector_12" d="M59.5391 11.4583L77.1823 -1.828L88.1331 12.6945L70.4899 25.9807L59.5391 11.4583Z" fill="white"/>
</g>
</mask>
<g mask="url(#mask3_111_299)">
<g id="Group_3">
<path id="Vector_13" d="M79.2563 19.1556C84.1321 15.4837 85.6357 9.25929 82.6146 5.25294C79.5934 1.24658 73.1917 0.975451 68.3158 4.64734C63.44 8.31924 61.9364 14.5437 64.9575 18.55C67.9787 22.5564 74.3804 22.8275 79.2563 19.1556Z" fill="#282828" stroke="white" stroke-width="4" stroke-miterlimit="10"/>
</g>
</g>
</g>
<g id="Clip path group_5">
<mask id="mask4_111_299" style="mask-type:luminance" maskUnits="userSpaceOnUse" x="62" y="-2" width="24" height="28">
<g id="SVGID_8__2">
<path id="Vector_14" d="M62.0537 20.1785L68.1414 -1.04192L85.6344 3.97166L79.5467 25.192L62.0537 20.1785Z" fill="white"/>
</g>
</mask>
<g mask="url(#mask4_111_299)">
<path id="Vector_15" d="M59.5396 11.457L77.1815 -1.82795L88.1336 12.6958L70.4916 25.9808L59.5396 11.457Z" stroke="white" stroke-width="4" stroke-miterlimit="10"/>
</g>
</g>
<path id="Vector_16" d="M79.2563 19.1556C84.1321 15.4837 85.6357 9.25929 82.6146 5.25294C79.5934 1.24658 73.1917 0.975451 68.3158 4.64734C63.44 8.31924 61.9364 14.5437 64.9575 18.55C67.9787 22.5564 74.3804 22.8275 79.2563 19.1556Z" stroke="white" stroke-width="4" stroke-miterlimit="10"/>
<path id="Vector_17" d="M59.5391 11.4583L77.1823 -1.828L88.1331 12.6945L70.4899 25.9807L59.5391 11.4583Z" fill="#282828"/>
<g id="Clip path group_6">
<mask id="mask5_111_299" style="mask-type:luminance" maskUnits="userSpaceOnUse" x="59" y="-2" width="30" height="28">
<g id="SVGID_10_">
<path id="Vector_18" d="M59.5391 11.4583L77.1823 -1.828L88.1331 12.6945L70.4899 25.9807L59.5391 11.4583Z" fill="white"/>
</g>
</mask>
<g mask="url(#mask5_111_299)">
<g id="Group_4">
<path id="Vector_19" d="M79.2563 19.1556C84.1321 15.4837 85.6357 9.25929 82.6146 5.25294C79.5934 1.24658 73.1917 0.975451 68.3158 4.64734C63.44 8.31924 61.9364 14.5437 64.9575 18.55C67.9787 22.5564 74.3804 22.8275 79.2563 19.1556Z" fill="#282828" stroke="white" stroke-width="4" stroke-miterlimit="10"/>
</g>
</g>
</g>
<g id="Clip path group_7">
<mask id="mask6_111_299" style="mask-type:luminance" maskUnits="userSpaceOnUse" x="62" y="-2" width="24" height="28">
<g id="SVGID_10__2">
<path id="Vector_20" d="M62.0537 20.1785L68.1414 -1.04192L85.6344 3.97166L79.5467 25.192L62.0537 20.1785Z" fill="white"/>
</g>
</mask>
<g mask="url(#mask6_111_299)">
<path id="Vector_21" d="M59.5396 11.457L77.1815 -1.82795L88.1336 12.6958L70.4916 25.9808L59.5396 11.457Z" stroke="white" stroke-width="4" stroke-miterlimit="10"/>
</g>
</g>
<path id="Vector_22" d="M52.5229 9.91455L77.7192 -9.06021L95.1543 14.0606L69.958 33.0354L52.5229 9.91455Z" stroke="white" stroke-width="4" stroke-miterlimit="10"/>
</g>
</g>
</g>
<path id="Vector_23" d="M79.2563 19.1556C84.1321 15.4837 85.6357 9.25929 82.6146 5.25294C79.5934 1.24658 73.1917 0.975451 68.3158 4.64734C63.44 8.31924 61.9364 14.5437 64.9575 18.55C67.9787 22.5564 74.3804 22.8275 79.2563 19.1556Z" stroke="white" stroke-width="4" stroke-miterlimit="10"/>
<path id="Vector_24" d="M68.8547 10.749L70.6094 9.52149L72.7677 12.5902C73.1361 13.0812 73.4169 13.6072 73.6275 14.1859C73.7503 14.6243 73.7152 15.0977 73.5397 15.5186C73.3116 16.0446 72.9431 16.483 72.4518 16.7986C71.8728 17.202 71.3814 17.4299 70.9603 17.5001C70.5567 17.5702 70.1356 17.5001 69.7496 17.3247C69.3284 17.1143 68.96 16.8162 68.6792 16.4304L70.1882 15.0276C70.3111 15.2205 70.469 15.3958 70.6445 15.5361C70.7673 15.6238 70.9077 15.6764 71.0656 15.6764C71.1884 15.6764 71.3113 15.6238 71.399 15.5536C71.5745 15.4484 71.6973 15.238 71.6797 15.0276C71.6271 14.7295 71.5043 14.4314 71.3113 14.2034L68.8547 10.749ZM74.1188 12.6954L75.7156 11.4328C75.891 11.6433 76.1191 11.8011 76.3648 11.8888C76.7157 11.994 77.0842 11.9238 77.3825 11.6959C77.5931 11.5556 77.7686 11.3627 77.8388 11.1172C77.944 10.8016 77.7686 10.4509 77.4527 10.3457C77.4001 10.3281 77.3474 10.3106 77.2948 10.3106C77.0842 10.293 76.7157 10.3807 76.1718 10.6087C75.2769 10.9769 74.575 11.1172 74.0486 11.0646C73.5397 11.012 73.066 10.749 72.7852 10.3106C72.5746 10.0125 72.4694 9.66177 72.4518 9.31107C72.4518 8.90776 72.5571 8.50444 72.7852 8.17127C73.1186 7.69782 73.5222 7.29451 74.0135 6.97887C74.7505 6.47035 75.3997 6.22485 75.9612 6.22485C76.5227 6.22485 77.0491 6.48788 77.5405 7.03148L75.9612 8.27649C75.6454 7.87317 75.0488 7.7855 74.6452 8.10113L74.5926 8.15374C74.4171 8.25895 74.2943 8.41677 74.2241 8.60966C74.1714 8.74994 74.2065 8.90776 74.2943 9.0305C74.3644 9.11818 74.4697 9.18832 74.5926 9.18832C74.7329 9.20586 74.9786 9.13572 75.3295 8.9779C76.2069 8.60966 76.8737 8.39923 77.3299 8.32909C77.7159 8.25895 78.1195 8.29402 78.488 8.45184C78.8214 8.59212 79.1021 8.83762 79.2952 9.13572C79.5408 9.48642 79.6812 9.90727 79.6987 10.3457C79.7163 10.8016 79.5935 11.24 79.3478 11.6257C79.032 12.0992 78.6284 12.5025 78.1546 12.8181C77.1895 13.4845 76.3999 13.765 75.7682 13.6598C75.0839 13.5546 74.5224 13.2039 74.1188 12.6954Z" fill="white"/>
</g>
</g>
</g>
</g>
</g>
</g>
</g>
</g>
<defs>
<clipPath id="clip0_111_299">
<rect width="97" height="36" fill="white"/>
</clipPath>
</defs>
</svg>
